<?xml version="1.0" standalone="no"?>
<!DOCTYPE svg PUBLIC "-//W3C//DTD SVG 20010904//EN"
 "http://www.w3.org/TR/2001/REC-SVG-20010904/DTD/svg10.dtd">
<svg version="1.0" xmlns="http://www.w3.org/2000/svg"
 width="512.000000pt" height="512.000000pt" viewBox="0 0 512.000000 512.000000"
 preserveAspectRatio="xMidYMid meet">
<metadata>
Created by potrace 1.11, written by Peter Selinger 2001-2013
</metadata>
<g transform="translate(0.000000,512.000000) scale(0.100000,-0.100000)"
fill="#000000" stroke="none">
<path d="M903 4380 c-204 -17 -330 -86 -397 -218 -9 -18 -27 -68 -38 -110 -20
-72 -22 -110 -28 -622 -6 -485 -8 -551 -24 -600 -27 -82 -51 -123 -92 -160
-44 -38 -82 -55 -146 -64 -42 -6 -48 -10 -48 -32 0 -20 5 -24 28 -24 108 0
221 -96 265 -225 6 -18 13 -250 17 -580 8 -590 12 -630 64 -749 54 -121 183
-187 391 -201 44 -3 99 -8 123 -10 39 -4 42 -3 42 19 0 21 -6 24 -57 31 -83
10 -128 31 -171 80 -47 53 -79 144 -92 255 -5 47 -10 290 -10 540 -1 479 -7
559 -47 652 -38 85 -110 148 -220 193 l-52 21 79 38 c90 43 159 109 192 183
42 94 47 172 48 663 0 256 5 499 10 540 28 210 98 304 250 331 63 11 70 14 70
36 0 26 3 26 -157 13z"/>
<path d="M4080 4366 c0 -21 6 -25 61 -35 119 -21 190 -85 231 -210 21 -63 22
-88 28 -621 8 -592 10 -622 61 -721 32 -64 102 -127 184 -166 l75 -35 -79 -38
c-126 -61 -183 -130 -217 -262 -14 -53 -18 -152 -24 -608 -6 -450 -10 -554
-23 -597 -47 -159 -106 -214 -259 -238 -32 -5 -38 -10 -38 -30 0 -23 1 -23 78
-19 304 20 430 84 487 249 35 103 37 146 45 685 8 597 10 617 69 704 51 73
140 126 212 126 24 0 29 4 29 25 0 26 -3 27 -82 40 -65 10 -129 62 -166 135
-18 36 -37 88 -43 115 -7 31 -14 259 -18 590 -7 466 -10 548 -25 600 -64 226
-191 309 -498 329 -88 6 -88 6 -88 -18z"/>
<path d="M1559 4234 c0 -5 -1 -151 -1 -324 l-1 -315 50 -3 c32 -2 54 2 60 10
6 7 18 83 28 168 19 183 33 219 88 238 97 31 523 52 1075 52 l372 0 -17 -27
c-85 -134 -1270 -1665 -1677 -2168 -231 -284 -235 -291 -236 -336 0 -26 5 -50
13 -55 7 -5 253 -5 580 0 328 5 832 5 1195 0 345 -5 632 -8 638 -6 8 2 14 56
18 160 4 86 10 240 15 342 6 123 5 189 -1 198 -13 16 -93 16 -105 0 -6 -7 -22
-85 -37 -173 -32 -197 -42 -231 -71 -261 -64 -64 -279 -80 -1074 -77 -332 1
-607 6 -612 10 -4 4 39 67 95 138 56 72 430 553 831 1070 401 517 787 1009
857 1093 l129 153 -3 57 -3 57 -140 -1 c-77 0 -464 -2 -860 -4 -396 -2 -829 0
-962 4 -137 5 -243 5 -244 0z"/>
</g>
</svg>
